<svg width="32" height="32" viewBox="0 0 32 32" xmlns="http://www.w3.org/2000/svg">
  <!-- Character face -->
  <circle cx="16" cy="14" r="7" fill="#F4C2A1" stroke="#2D2D2D" stroke-width="0.5"/>
  
  <!-- Hair -->
  <path d="M 9 10 Q 10.5 6.5 13.5 7.2 Q 15 5.5 16.5 5.5 Q 18 5.5 19.5 7.2 Q 22.5 6.5 23 10 Q 22.5 8.5 22 9.5 Q 21 8 20 8.5 Q 19 7 18.5 8 Q 17.5 6.5 16.5 7.2 Q 15.5 6.5 14.5 7.2 Q 14 6.5 13.5 8 Q 12.5 7 11.5 8.5 Q 11 8 10.5 9.5 Q 10 8.5 9 10" fill="#4A4A4A" stroke="#2D2D2D" stroke-width="0.3"/>
  
  <!-- Eyes -->
  <ellipse cx="14" cy="13" rx="1.3" ry="1.6" fill="white" stroke="#2D2D2D" stroke-width="0.3"/>
  <ellipse cx="18" cy="13" rx="1.3" ry="1.6" fill="white" stroke="#2D2D2D" stroke-width="0.3"/>
  <circle cx="14" cy="13.2" r="0.6" fill="#2D2D2D"/>
  <circle cx="18" cy="13.2" r="0.6" fill="#2D2D2D"/>
  
  <!-- Eyebrows -->
  <path d="M 13 11 Q 14 10.8 15 11" stroke="#4A4A4A" stroke-width="0.5" fill="none" stroke-linecap="round"/>
  <path d="M 17 11 Q 18 10.8 19 11" stroke="#4A4A4A" stroke-width="0.5" fill="none" stroke-linecap="round"/>
  
  <!-- Nose -->
  <circle cx="16" cy="14.5" r="0.3" fill="#E8A882"/>
  
  <!-- Mouth -->
  <path d="M 14.5 16 Q 16 17.3 17.5 16" stroke="#2D2D2D" stroke-width="0.4" fill="none" stroke-linecap="round"/>
  
  <!-- Ears -->
  <ellipse cx="9.5" cy="13.5" rx="1.3" ry="1.9" fill="#F4C2A1" stroke="#2D2D2D" stroke-width="0.3"/>
  <ellipse cx="22.5" cy="13.5" rx="1.3" ry="1.9" fill="#F4C2A1" stroke="#2D2D2D" stroke-width="0.3"/>
  
  <!-- Body/Shirt -->
  <rect x="12" y="21" width="8" height="6.5" fill="#FFD700" stroke="#2D2D2D" stroke-width="0.3" rx="1"/>
  
  <!-- Backpack straps -->
  <rect x="11.2" y="21.5" width="1.3" height="5" fill="#4A90E2" stroke="#2D2D2D" stroke-width="0.3" rx="0.6"/>
  <rect x="19.5" y="21.5" width="1.3" height="5" fill="#4A90E2" stroke="#2D2D2D" stroke-width="0.3" rx="0.6"/>
  
  <!-- Sleeves -->
  <ellipse cx="9.5" cy="23" rx="1.9" ry="1.3" fill="#87CEEB" stroke="#2D2D2D" stroke-width="0.3"/>
  <ellipse cx="22.5" cy="23" rx="1.9" ry="1.3" fill="#87CEEB" stroke="#2D2D2D" stroke-width="0.3"/>
</svg>