<svg width="128" height="128" viewBox="0 0 128 128" xmlns="http://www.w3.org/2000/svg">
  <!-- Blue glow background -->
  <defs>
    <radialGradient id="blueGlow" cx="50%" cy="50%" r="50%">
      <stop offset="0%" style="stop-color:#87CEEB;stop-opacity:0.8"/>
      <stop offset="70%" style="stop-color:#4FC3F7;stop-opacity:0.4"/>
      <stop offset="100%" style="stop-color:#03A9F4;stop-opacity:0.1"/>
    </radialGradient>
    <linearGradient id="robotBody" x1="0%" y1="0%" x2="0%" y2="100%">
      <stop offset="0%" style="stop-color:#E3F2FD"/>
      <stop offset="100%" style="stop-color:#BBDEFB"/>
    </linearGradient>
    <linearGradient id="helmet" x1="0%" y1="0%" x2="0%" y2="100%">
      <stop offset="0%" style="stop-color:#81D4FA"/>
      <stop offset="100%" style="stop-color:#4FC3F7"/>
    </linearGradient>
    <linearGradient id="shield" x1="0%" y1="0%" x2="0%" y2="100%">
      <stop offset="0%" style="stop-color:#4FC3F7"/>
      <stop offset="100%" style="stop-color:#0288D1"/>
    </linearGradient>
  </defs>
  
  <!-- Background glow -->
  <circle cx="64" cy="64" r="58" fill="url(#blueGlow)"/>
  
  <!-- Robot Head/Helmet -->
  <ellipse cx="64" cy="45" rx="28" ry="25" fill="url(#helmet)" stroke="#0288D1" stroke-width="2"/>
  
  <!-- Helmet visor -->
  <ellipse cx="64" cy="40" rx="20" ry="15" fill="rgba(255,255,255,0.3)" stroke="#81D4FA" stroke-width="1"/>
  
  <!-- Helmet antenna -->
  <rect x="62" y="20" width="4" height="8" rx="2" fill="#4FC3F7"/>
  <circle cx="64" cy="18" r="3" fill="#81D4FA"/>
  
  <!-- Face area -->
  <ellipse cx="64" cy="48" rx="22" ry="18" fill="#FFE0B2" stroke="#FFCC80" stroke-width="1"/>
  
  <!-- Eyes -->
  <circle cx="57" cy="45" r="6" fill="white" stroke="#E0E0E0" stroke-width="1"/>
  <circle cx="71" cy="45" r="6" fill="white" stroke="#E0E0E0" stroke-width="1"/>
  <circle cx="57" cy="45" r="4" fill="#2196F3"/>
  <circle cx="71" cy="45" r="4" fill="#2196F3"/>
  <circle cx="58" cy="43" r="1.5" fill="white"/>
  <circle cx="72" cy="43" r="1.5" fill="white"/>
  
  <!-- Cute mouth -->
  <path d="M59 52 Q64 56 69 52" stroke="#FF6B6B" stroke-width="2" fill="none"/>
  
  <!-- Robot body -->
  <rect x="48" y="65" width="32" height="35" rx="8" fill="url(#robotBody)" stroke="#90CAF9" stroke-width="2"/>
  
  <!-- Body segments -->
  <rect x="50" y="72" width="28" height="3" rx="1.5" fill="#90CAF9"/>
  <rect x="50" y="80" width="28" height="3" rx="1.5" fill="#90CAF9"/>
  <rect x="50" y="88" width="28" height="3" rx="1.5" fill="#90CAF9"/>
  
  <!-- Arms -->
  <rect x="35" y="70" width="12" height="20" rx="6" fill="url(#robotBody)" stroke="#90CAF9" stroke-width="2"/>
  <rect x="81" y="70" width="12" height="20" rx="6" fill="url(#robotBody)" stroke="#90CAF9" stroke-width="2"/>
  
  <!-- Hands -->
  <circle cx="41" cy="92" r="5" fill="#E3F2FD" stroke="#90CAF9" stroke-width="2"/>
  <circle cx="87" cy="92" r="5" fill="#E3F2FD" stroke="#90CAF9" stroke-width="2"/>
  
  <!-- Shield with D logo -->
  <path d="M64 75 L52 82 L52 95 Q52 100 64 105 Q76 100 76 95 L76 82 Z" fill="url(#shield)" stroke="#0277BD" stroke-width="2"/>
  
  <!-- D letter in shield -->
  <path d="M58 85 L58 95 L64 95 Q68 95 68 90 Q68 85 64 85 Z" fill="white" stroke="none"/>
  <path d="M60 87 L60 93 L64 93 Q66 93 66 90 Q66 87 64 87 Z" fill="url(#shield)"/>
  
  <!-- Legs -->
  <rect x="54" y="100" width="8" height="15" rx="4" fill="url(#robotBody)" stroke="#90CAF9" stroke-width="2"/>
  <rect x="66" y="100" width="8" height="15" rx="4" fill="url(#robotBody)" stroke="#90CAF9" stroke-width="2"/>
  
  <!-- Feet -->
  <ellipse cx="58" cy="118" rx="6" ry="4" fill="#E3F2FD" stroke="#90CAF9" stroke-width="2"/>
  <ellipse cx="70" cy="118" rx="6" ry="4" fill="#E3F2FD" stroke="#90CAF9" stroke-width="2"/>
</svg>