<svg width="200" height="200" viewBox="0 0 200 200" xmlns="http://www.w3.org/2000/svg">
  <!-- Character face -->
  <circle cx="100" cy="90" r="45" fill="#F4C2A1" stroke="#2D2D2D" stroke-width="3"/>
  
  <!-- Hair -->
  <path d="M 55 65 Q 65 40 85 45 Q 95 35 105 35 Q 115 35 125 45 Q 135 40 145 65 Q 140 55 135 60 Q 130 50 125 55 Q 120 45 115 50 Q 110 40 105 45 Q 100 40 95 45 Q 90 40 85 50 Q 80 45 75 55 Q 70 50 65 60 Q 60 55 55 65" fill="#4A4A4A" stroke="#2D2D2D" stroke-width="2"/>
  
  <!-- Eyes -->
  <ellipse cx="87" cy="80" rx="8" ry="10" fill="white" stroke="#2D2D2D" stroke-width="2"/>
  <ellipse cx="113" cy="80" rx="8" ry="10" fill="white" stroke="#2D2D2D" stroke-width="2"/>
  <circle cx="87" cy="82" r="4" fill="#2D2D2D"/>
  <circle cx="113" cy="82" r="4" fill="#2D2D2D"/>
  
  <!-- Eyebrows -->
  <path d="M 82 70 Q 87 68 92 70" stroke="#4A4A4A" stroke-width="3" fill="none" stroke-linecap="round"/>
  <path d="M 108 70 Q 113 68 118 70" stroke="#4A4A4A" stroke-width="3" fill="none" stroke-linecap="round"/>
  
  <!-- Nose -->
  <circle cx="100" cy="90" r="2" fill="#E8A882"/>
  
  <!-- Mouth -->
  <path d="M 90 100 Q 100 108 110 100" stroke="#2D2D2D" stroke-width="2.5" fill="none" stroke-linecap="round"/>
  
  <!-- Ears -->
  <ellipse cx="60" cy="85" rx="8" ry="12" fill="#F4C2A1" stroke="#2D2D2D" stroke-width="2"/>
  <ellipse cx="140" cy="85" rx="8" ry="12" fill="#F4C2A1" stroke="#2D2D2D" stroke-width="2"/>
  
  <!-- Body/Shirt -->
  <rect x="75" y="130" width="50" height="40" fill="#FFD700" stroke="#2D2D2D" stroke-width="2" rx="5"/>
  
  <!-- Backpack straps -->
  <rect x="70" y="135" width="8" height="30" fill="#4A90E2" stroke="#2D2D2D" stroke-width="2" rx="4"/>
  <rect x="122" y="135" width="8" height="30" fill="#4A90E2" stroke="#2D2D2D" stroke-width="2" rx="4"/>
  
  <!-- Sleeves -->
  <ellipse cx="60" cy="145" rx="12" ry="8" fill="#87CEEB" stroke="#2D2D2D" stroke-width="2"/>
  <ellipse cx="140" cy="145" rx="12" ry="8" fill="#87CEEB" stroke="#2D2D2D" stroke-width="2"/>
</svg>